<?xml version="1.0" encoding="UTF-8"?>
<svg width="752pt" height="752pt" version="1.1" viewBox="0 0 752 752" xmlns="http://www.w3.org/2000/svg">
 <g fill="#45dee0">
  <path d="m523.25 603.91h-294.51c-28.859 0-52.539-23.68-52.539-52.539l0.003907-350.75c0-28.859 23.68-52.539 52.539-52.539h295.25c28.859 0 52.539 23.68 52.539 52.539v350.75c-0.003906 28.859-23.684 52.539-53.285 52.539zm-294.51-423.27c-11.098 0-19.98 8.8789-19.98 19.98v350.75c0 11.098 8.8789 19.98 19.98 19.98h295.25c11.098 0 19.98-8.8789 19.98-19.98v-350.75c0-11.098-8.8789-19.98-19.98-19.98z"/>
  <path d="m373.78 354.54c0 1.4805-1.4805 2.2188-2.9609 2.2188h-124.31c-1.4805 0-2.2188-0.73828-2.9609-2.2188-0.73828-5.918-0.73828-29.598 2.9609-34.777 3.6992-5.1797 35.52-17.758 39.957-19.238 0.73828 0 1.4805 0 1.4805 0.73828l18.5 19.98c0.73828 0.73828 1.4805 0.73828 2.2188 0l18.5-19.98c0-0.73828 0.73828-0.73828 1.4805-0.73828 4.4414 1.4805 37 14.059 40.699 19.238 5.1758 5.1797 5.1758 28.855 4.4375 34.777z"/>
  <path d="m338.26 255.39c0-4.4414-0.73828-8.1406-2.2188-9.6211-2.9609-14.801-14.059-19.98-26.641-19.98-13.32 0-25.16 5.918-27.379 22.199-1.4805 1.4805-2.2188 5.1797-2.2188 8.8789 0 5.1797 1.4805 9.6211 3.6992 10.359 3.6992 15.539 14.059 27.379 25.898 27.379 12.578 0 22.938-13.32 26.641-29.598 0.73828-1.4766 2.2188-5.1797 2.2188-9.6172z"/>
  <path d="m501.8 277.59h-88.059c-3.6992 0-6.6602-2.9609-6.6602-6.6602s2.9609-6.6602 6.6602-6.6602h88.059c3.6992 0 6.6602 2.9609 6.6602 6.6602s-2.9609 6.6602-6.6602 6.6602z"/>
  <path d="m501.8 318.29h-88.059c-3.6992 0-6.6602-2.9609-6.6602-6.6602s2.9609-6.6602 6.6602-6.6602h88.059c3.6992 0 6.6602 2.9609 6.6602 6.6602s-2.9609 6.6602-6.6602 6.6602z"/>
  <path d="m501.8 420.4h-251.59c-3.6992 0-6.6602-2.9609-6.6602-6.6602s2.9609-6.6602 6.6602-6.6602h251.59c3.6992 0 6.6602 2.9609 6.6602 6.6602 0 3.7031-2.9609 6.6602-6.6602 6.6602z"/>
  <path d="m501.8 473.68h-251.59c-3.6992 0-6.6602-2.9609-6.6602-6.6602s2.9609-6.6602 6.6602-6.6602h251.59c3.6992 0 6.6602 2.9609 6.6602 6.6602 0 3.7031-2.9609 6.6602-6.6602 6.6602z"/>
  <path d="m501.8 526.21h-251.59c-3.6992 0-6.6602-2.9609-6.6602-6.6602 0-3.6992 2.9609-6.6602 6.6602-6.6602h251.59c3.6992 0 6.6602 2.9609 6.6602 6.6602 0 3.6992-2.9609 6.6602-6.6602 6.6602z"/>
 </g>
</svg>
